<svg width="63" height="63" viewBox="0 0 63 63" fill="none" xmlns="http://www.w3.org/2000/svg">
<g clip-path="url(#clip0_38_537)">
<path d="M0 47.5168V61.3982H4.27119V59.2626C4.27119 56.9039 6.18363 54.9914 8.54237 54.9914H42.7119C45.0706 54.9914 46.983 56.9039 46.983 59.2626V61.3982H51.2542V47.5168H0Z" fill="#D9C2A0"/>
<path d="M46.9831 18.6864C45.214 18.6864 43.7797 17.2521 43.7797 15.483L44.8475 13.3474H49.1186L50.1864 15.483C50.1864 17.2521 48.7521 18.6864 46.9831 18.6864Z" fill="#F7BA61"/>
<path d="M40.5763 15.483L44.8475 10.144L45.9153 9.07617H48.0509L49.1186 10.144L53.3898 15.483H40.5763Z" fill="#E4E4E2"/>
<path d="M58.7288 62.4661C58.1391 62.4661 57.661 61.988 57.661 61.3983V5.87292C57.661 4.10386 56.2267 2.66953 54.4576 2.66953H51.2542C49.4852 2.66953 48.0508 4.10386 48.0508 5.87292C48.0508 6.46261 47.5727 6.94072 46.983 6.94072C46.3934 6.94072 45.9153 6.46261 45.9153 5.87292C45.9189 2.92553 48.3068 0.537585 51.2542 0.533936H54.4576C57.405 0.537585 59.793 2.92553 59.7966 5.87292V61.3983C59.7966 61.988 59.3185 62.4661 58.7288 62.4661Z" fill="#C3C3C3"/>
<path d="M6.40678 22.9575H44.8475C47.2062 22.9575 49.1186 24.87 49.1186 27.2287V37.9067H2.13559V27.2287C2.13559 24.87 4.04803 22.9575 6.40678 22.9575Z" fill="#D9C2A0"/>
<path d="M2.13559 35.7712H49.1186V38.9746H2.13559V35.7712Z" fill="#C1AC8E"/>
<path d="M51.2542 48.5847H0V40.0423C0 38.863 0.95622 37.9067 2.13559 37.9067H49.1186C50.298 37.9067 51.2542 38.863 51.2542 40.0423V48.5847Z" fill="#5D62B5"/>
<path d="M10.678 29.3645H19.2203C21.5791 29.3645 23.4915 31.2769 23.4915 33.6357C23.4915 35.9944 21.5791 37.9069 19.2203 37.9069H10.678C8.31922 37.9069 6.40678 35.9944 6.40678 33.6357C6.40678 31.2769 8.31922 29.3645 10.678 29.3645Z" fill="#50559F"/>
<path d="M32.0339 29.3645H40.5763C42.935 29.3645 44.8475 31.2769 44.8475 33.6357C44.8475 35.9944 42.935 37.9069 40.5763 37.9069H32.0339C29.6752 37.9069 27.7627 35.9944 27.7627 33.6357C27.7627 31.2769 29.6752 29.3645 32.0339 29.3645Z" fill="#50559F"/>
<path d="M44.8475 5.8728H49.1186V10.144H44.8475V5.8728Z" fill="#DBDBDB"/>
<path d="M61.9322 62.4662H55.5254C54.9358 62.4662 54.4576 61.988 54.4576 61.3984C54.4576 60.8087 54.9358 60.3306 55.5254 60.3306H61.9322C62.5219 60.3306 63 60.8087 63 61.3984C63 61.988 62.5219 62.4662 61.9322 62.4662Z" fill="#B9B9B9"/>
<path d="M19.2203 29.3645H10.678C8.31922 29.3645 6.40678 31.2769 6.40678 33.6357H23.4915C23.4915 31.2769 21.5791 29.3645 19.2203 29.3645Z" fill="#5D62B5"/>
<path d="M40.5763 29.3645H32.0339C29.6752 29.3645 27.7627 31.2769 27.7627 33.6357H44.8475C44.8475 31.2769 42.935 29.3645 40.5763 29.3645Z" fill="#5D62B5"/>
</g>
<defs>
<clipPath id="clip0_38_537">
<rect width="63" height="63" fill="white"/>
</clipPath>
</defs>
</svg>
