<svg width="63" height="63" viewBox="0 0 63 63" fill="none" xmlns="http://www.w3.org/2000/svg">
<path d="M43.5102 37.4062V47.25L44.4946 51.1875L47.4477 52.1719L46.4633 56.1094H41.5414L39.5727 47.25V41.3438L43.5102 37.4062Z" fill="#DBDBDB"/>
<path d="M15.7502 55.125H10.9182C9.91534 55.125 8.93234 54.8457 8.07932 54.3185C7.2263 53.7912 6.53696 53.0369 6.08856 52.1399C3.52786 47.0207 2.50228 41.2702 3.13544 35.5815L3.15143 35.4375C3.42706 35.547 3.6953 35.6688 3.95862 35.7993C5.16873 36.402 6.2548 37.2268 7.1603 38.2307C8.2659 39.455 9.0762 40.9165 9.52895 42.5029C9.69074 43.0681 9.96821 43.5937 10.3438 44.0461C10.7193 44.4985 11.1847 44.868 11.7106 45.1311L12.0108 45.2812L13.9796 52.1719L14.5702 53.1562L15.7502 55.125Z" fill="#DBDBDB"/>
<path d="M14.57 53.1563H11.9023C10.8995 53.1563 9.91651 52.877 9.06349 52.3498C8.21047 51.8226 7.52113 51.0682 7.07273 50.1712C5.01105 46.049 3.93763 41.5034 3.9375 36.8944C3.9375 36.5302 3.94365 36.1648 3.95842 35.7993C5.16853 36.4021 6.2546 37.2269 7.1601 38.2307C8.2657 39.4551 9.07599 40.9166 9.52875 42.5029C9.69054 43.0682 9.968 43.5937 10.3436 44.0462C10.7191 44.4986 11.1845 44.8681 11.7104 45.1312L12.0106 45.2813L13.9794 52.1719L14.57 53.1563Z" fill="#EAEAE8"/>
<path d="M55.3228 9.84375V14.7656L52.3697 16.7344L49.355 17.3373L47.4478 17.7188L47.1771 18.6662L46.0746 22.525L45.8039 23.4724C45.7953 23.502 45.7867 23.5315 45.7805 23.5622C45.7007 23.8559 45.6476 24.1561 45.6218 24.4593C45.5964 24.7519 45.5955 25.0462 45.6193 25.339C45.6316 25.4855 45.6489 25.6307 45.6735 25.7759C46.1887 28.8706 45.8057 32.0482 44.5697 34.9318L43.5103 37.4062L39.5728 41.3438V47.25L40.4391 51.1481L43.5103 52.1719L42.5259 56.1094H37.6041L34.6509 45.2812L32.9578 46.9744C31.4712 48.4613 29.7543 49.6987 27.8735 50.6387L26.7759 51.1875H27.8477C28.6076 51.1878 29.3364 51.4899 29.8737 52.0272C30.4111 52.5646 30.7131 53.2933 30.7134 54.0533V56.1094H16.6824C16.3274 56.1095 15.9758 56.0396 15.6477 55.9038C15.3197 55.768 15.0217 55.5689 14.7706 55.3178C14.5196 55.0668 14.3204 54.7687 14.1846 54.4407C14.0488 54.1127 13.979 53.7611 13.9791 53.406V52.1719L12.0103 45.2812L13.1903 40.9525C14.3396 36.7401 16.8599 33.0309 20.3529 30.411L27.1906 25.2824C29.5068 23.5451 31.3869 21.2926 32.6822 18.7031L34.6509 16.7344L34.9623 15.8017V15.8004L37.6041 7.875L42.5259 5.90625H47.4478L49.4166 9.84375H55.3228Z" fill="#EAEAE8"/>
<path d="M45.4789 11.8125C46.0226 11.8125 46.4633 11.3718 46.4633 10.8281C46.4633 10.2845 46.0226 9.84375 45.4789 9.84375C44.9353 9.84375 44.4946 10.2845 44.4946 10.8281C44.4946 11.3718 44.9353 11.8125 45.4789 11.8125Z" fill="#8F563B"/>
<path d="M30.0088 52.172H23.9451C23.684 52.172 23.4336 52.0683 23.249 51.8837C23.0644 51.6991 22.9607 51.4487 22.9607 51.1876C22.9607 50.9265 23.0644 50.6762 23.249 50.4916C23.4336 50.3069 23.684 50.2032 23.9451 50.2032C24.6133 50.2055 25.2688 50.0206 25.8373 49.6693C26.4058 49.3181 26.8645 48.8147 27.1615 48.216C27.5174 47.4999 27.6264 46.6861 27.4716 45.9015C27.2928 44.9949 26.9082 44.1415 26.3473 43.4072C25.7864 42.6729 25.0643 42.0772 24.2367 41.6662L23.3827 41.2405C23.1491 41.1238 22.9713 40.9191 22.8886 40.6714C22.8059 40.4237 22.8249 40.1533 22.9416 39.9196C23.0583 39.6859 23.263 39.5082 23.5107 39.4255C23.7584 39.3427 24.0289 39.3618 24.2625 39.4785L25.1165 39.9054C26.2131 40.4496 27.17 41.2386 27.9131 42.2115C28.6562 43.1845 29.1657 44.3152 29.4022 45.5164C29.5651 46.3381 29.5412 47.186 29.3323 47.9972C29.1233 48.8085 28.7347 49.5624 28.1951 50.2032L26.7764 51.1876H27.8481C28.2578 51.1871 28.6628 51.2748 29.0356 51.4446C29.4084 51.6145 29.7403 51.8625 30.0088 52.172V52.172Z" fill="#DBDBDB"/>
<path d="M52.3696 9.84375C52.3696 10.627 52.6807 11.3781 53.2345 11.9319C53.7883 12.4857 54.5395 12.7969 55.3227 12.7969V9.84375H52.3696Z" fill="#8F563B"/>
<path d="M49.3557 17.3373L47.4484 17.7187L47.1777 18.6662L44.184 17.6683C43.988 17.603 43.8175 17.4776 43.6967 17.31C43.5759 17.1424 43.5109 16.941 43.5109 16.7344V14.7656C43.5109 14.5046 43.6146 14.2542 43.7992 14.0696C43.9839 13.885 44.2342 13.7812 44.4953 13.7812C44.7564 13.7812 45.0068 13.885 45.1914 14.0696C45.376 14.2542 45.4797 14.5046 45.4797 14.7656V16.0244L49.1785 17.2573C49.2401 17.2779 49.2994 17.3047 49.3557 17.3373V17.3373Z" fill="#DBDBDB"/>
<path d="M46.7884 23.454C46.793 23.7149 46.6939 23.967 46.5128 24.1548C46.3316 24.3426 46.0834 24.4508 45.8225 24.4556L45.6219 24.4593L45.1174 24.4692C45.0399 24.4704 44.9624 24.4716 44.8861 24.4716C42.5792 24.4769 40.319 23.8212 38.373 22.5822C36.427 21.3432 34.8767 19.5726 33.9054 17.4801L34.6511 16.7345L34.9624 15.8018C34.9829 15.8081 35.003 15.8154 35.0227 15.8239C35.0464 15.8328 35.0694 15.8435 35.0916 15.8559C35.1083 15.8626 35.1243 15.8709 35.1396 15.8805C35.1592 15.8916 35.1777 15.9027 35.1962 15.915C35.3553 16.0211 35.4801 16.1711 35.5555 16.3469C36.3341 18.1763 37.6345 19.7357 39.2941 20.8306C40.9537 21.9254 42.8991 22.507 44.8873 22.5029C44.9513 22.5029 45.0153 22.5017 45.0805 22.5004L45.7856 22.4881C45.8833 22.4854 45.9808 22.4978 46.0747 22.525C46.2771 22.5838 46.4554 22.7056 46.5837 22.8726C46.7121 23.0397 46.7838 23.2434 46.7884 23.454V23.454Z" fill="#5D62B5"/>
<path d="M49.4169 24.6094C49.4167 24.9985 49.3012 25.3788 49.0849 25.7022C48.8686 26.0257 48.5613 26.2777 48.2017 26.4266C47.8422 26.5754 47.4466 26.6143 47.065 26.5383C46.6834 26.4623 46.3329 26.2749 46.0577 25.9998C45.7826 25.7247 45.5952 25.3741 45.5192 24.9925C45.4433 24.6109 45.4822 24.2153 45.631 23.8558C45.7798 23.4963 46.0319 23.189 46.3553 22.9727C46.6788 22.7564 47.0591 22.6408 47.4482 22.6406C47.9703 22.6406 48.4711 22.848 48.8403 23.2173C49.2095 23.5865 49.4169 24.0872 49.4169 24.6094Z" fill="#F3AF3E"/>
<path d="M48.2344 24.6094C48.2344 25.0281 48.1009 25.4359 47.8533 25.7736C47.6056 26.1113 47.2568 26.3612 46.8575 26.4871C46.4581 26.3612 46.1093 26.1113 45.8617 25.7736C45.614 25.4359 45.4805 25.0281 45.4805 24.6094C45.4805 24.1907 45.614 23.7828 45.8617 23.4452C46.1093 23.1075 46.4581 22.8576 46.8575 22.7317C47.2568 22.8576 47.6056 23.1075 47.8533 23.4452C48.1009 23.7828 48.2344 24.1907 48.2344 24.6094V24.6094Z" fill="#EA9D2D"/>
<path d="M56.1094 56.1094C58.284 56.1094 60.0469 54.3465 60.0469 52.1719C60.0469 49.9973 58.284 48.2344 56.1094 48.2344C53.9348 48.2344 52.1719 49.9973 52.1719 52.1719C52.1719 54.3465 53.9348 56.1094 56.1094 56.1094Z" fill="#5D62B5"/>
<path d="M60.0469 52.1719C60.0469 53.2162 59.632 54.2177 58.8936 54.9561C58.1552 55.6945 57.1537 56.1094 56.1094 56.1094C56.7205 54.8868 57.0387 53.5387 57.0387 52.1719C57.0387 50.805 56.7205 49.457 56.1094 48.2344C57.1537 48.2344 58.1552 48.6492 58.8936 49.3876C59.632 50.1261 60.0469 51.1276 60.0469 52.1719Z" fill="#29C3BE"/>
<path d="M41.542 11.8125V15.1545C41.5412 16.1986 41.1262 17.1998 40.388 17.9383C39.6498 18.6767 38.6487 19.0921 37.6045 19.0932C37.4962 19.0932 37.388 19.0883 37.2797 19.0796C36.6148 19.0246 35.9749 18.801 35.4204 18.43L34.1051 17.5539C34.0511 17.5179 34.0008 17.4767 33.955 17.4308L34.6514 16.7344L34.9627 15.8017C34.9832 15.808 35.0033 15.8154 35.023 15.8238C35.0468 15.8327 35.0698 15.8434 35.0919 15.8558C35.1086 15.8625 35.1247 15.8708 35.1399 15.8804C35.1596 15.8915 35.178 15.9026 35.1965 15.9149L36.5119 16.7922C36.8084 16.9898 37.153 17.1032 37.5089 17.1204C37.8648 17.1376 38.2187 17.0579 38.5329 16.8898C38.8471 16.7218 39.1098 16.4716 39.293 16.166C39.4762 15.8604 39.5731 15.5108 39.5733 15.1545V11.8125C39.5733 11.5514 39.677 11.301 39.8616 11.1164C40.0462 10.9318 40.2966 10.8281 40.5576 10.8281C40.8187 10.8281 41.0691 10.9318 41.2537 11.1164C41.4383 11.301 41.542 11.5514 41.542 11.8125V11.8125Z" fill="#C3C3C3"/>
</svg>
